<?xml version="1.0" encoding="utf-8"?>
<!-- Generator: Adobe Illustrator 25.1.0, SVG Export Plug-In . SVG Version: 6.00 Build 0)  -->
<svg version="1.1" id="logo" xmlns="http://www.w3.org/2000/svg" xmlns:xlink="http://www.w3.org/1999/xlink" x="0px" y="0px"
	 viewBox="0 0 128 128" style="enable-background:new 0 0 128 128;" xml:space="preserve">
<style type="text/css">
	.st0{display:none;}
	.st1{display:inline;fill:#FFFFFF;}
</style>
<g>
	<path d="M25.06,67.27c-6.53,8.09-11.05,17.64-14.28,27.54C5.19,86.11,1.97,75.66,1.97,64c0-15.04,5.35-27.09,14.25-35.88
		c-1.74,4.06-2.68,8.9-2.68,14C13.54,52.5,17.47,62.97,25.06,67.27z"/>
	<path d="M56.05,69.47v52.12c-15.67-1.72-29.5-8.54-39.24-19.04c3.38-12.24,8.59-24.14,17.04-33.23L56.05,69.47z"/>
	<path d="M56.05,24.02v37.45l-23.09-0.16c-7.42,0-11.42-9.89-11.42-19.19c0-5.05,1.16-9.83,3.2-13.12c2.03-3.3,4.8-4.98,8.22-4.98
		H56.05z"/>
	<path d="M111.43,102.3c-8.62,9.4-20.48,15.88-34.01,18.47V81.75l22.04-0.15C105.17,85.09,108.82,92.63,111.43,102.3z"/>
	<path d="M100.49,73.59l-23.07,0.16V36.31h23.1c3.41,0,6.18,1.67,8.22,4.97c2.03,3.29,3.2,8.07,3.2,13.12
		C111.94,63.7,107.93,73.59,100.49,73.59z"/>
	<path d="M126.03,64c0,11.52-3.14,21.85-8.61,30.49c-2.11-6.14-4.81-11.36-8.42-15.29c7.21-4.5,10.94-14.7,10.94-24.8
		c0-6.58-1.56-12.74-4.39-17.32c-3.5-5.66-8.83-8.77-15.03-8.77h-31.1v93.51c-1.77,0.14-3.56,0.21-5.37,0.21V16.02H35.33
		c8.57-3.34,18.33-5.05,28.67-5.05C98.26,10.97,126.03,29.74,126.03,64z"/>
</g>
<g class="st0">
	<path class="st1" d="M32.96,16.02c-6.2,0-11.54,3.12-15.03,8.77c-0.64,1.03-1.21,2.15-1.71,3.33c5.25-5.19,11.75-9.25,19.11-12.1
		H32.96z"/>
	<path class="st1" d="M117.42,94.49c-2.11-6.14-4.81-11.36-8.42-15.29c7.21-4.5,10.94-14.7,10.94-24.8c0-6.58-1.56-12.74-4.39-17.32
		c-3.5-5.66-8.83-8.77-15.03-8.77h-31.1v100.21h8V81.75l22.04-0.15c5.71,3.49,9.36,11.03,11.97,20.7
		c2.21,8.22,3.67,17.98,5.01,28.11l7.94-1.05C122.65,116.3,120.77,104.22,117.42,94.49z M77.42,36.31h23.1
		c3.41,0,6.18,1.67,8.22,4.97c2.03,3.29,3.2,8.07,3.2,13.12c0,9.3-4.01,19.19-11.45,19.19l-23.07,0.16V36.31z"/>
	<path class="st1" d="M16.22,28.12c-1.74,4.06-2.68,8.9-2.68,14c0,10.38,3.93,20.85,11.52,25.15c-6.53,8.09-11.05,17.64-14.28,27.54
		c-3.81,11.66-5.81,23.79-7.16,34.58l7.94,0.99c1.1-8.73,2.62-18.38,5.25-27.83c3.38-12.24,8.59-24.14,17.04-33.23l22.2,0.15v59.05
		h8V16.02H35.33C27.97,18.87,21.47,22.93,16.22,28.12z M56.05,61.47l-23.09-0.16c-7.42,0-11.42-9.89-11.42-19.19
		c0-5.05,1.16-9.83,3.2-13.12c2.03-3.3,4.8-4.98,8.22-4.98h23.09V61.47z"/>
</g>
</svg>
